<svg xmlns="http://www.w3.org/2000/svg" xmlns:xlink="http://www.w3.org/1999/xlink" width="1920" zoomAndPan="magnify" viewBox="0 0 1440 809.999993" height="1080" preserveAspectRatio="xMidYMid meet" version="1.0"><defs><clipPath id="bd9ed2ace7"><path d="M 553 185 L 871 185 L 871 660 L 553 660 Z M 553 185 " clip-rule="nonzero"/></clipPath><clipPath id="ab5e131c45"><path d="M 469.21875 409.398438 L 722.058594 174.667969 L 956.789062 427.507812 L 703.949219 662.234375 Z M 469.21875 409.398438 " clip-rule="nonzero"/></clipPath><clipPath id="a379db4f3c"><path d="M 469.21875 409.398438 L 722.058594 174.667969 L 956.789062 427.507812 L 703.949219 662.234375 Z M 469.21875 409.398438 " clip-rule="nonzero"/></clipPath></defs><g clip-path="url(#bd9ed2ace7)"><g clip-path="url(#ab5e131c45)"><g clip-path="url(#a379db4f3c)"><path fill="#b9e119" d="M 729.539062 190.785156 L 725.324219 187.261719 C 722.910156 185.269531 719.449219 185.089844 716.894531 186.898438 C 607.042969 265.257812 552.074219 349.609375 553.492188 437.613281 C 554.1875 483.277344 570.996094 522.167969 601.882812 550.0625 C 627.855469 573.480469 662.324219 587.695312 699.5625 590.394531 L 697.269531 652.101562 C 697.128906 655.90625 700.085938 659.089844 703.886719 659.230469 C 705.839844 659.304688 707.523438 658.585938 708.839844 657.363281 C 710.152344 656.144531 710.949219 654.464844 711.066406 652.566406 L 713.359375 590.859375 C 750.457031 590.773438 785.59375 579.144531 813.082031 557.859375 C 816.496094 555.253906 819.777344 552.398438 822.859375 549.535156 C 849.855469 524.472656 866.019531 490.078125 869.679688 449.3125 C 873.425781 407.621094 865.722656 367.996094 846.066406 328.167969 C 823.601562 282.574219 784.367188 236.359375 729.539062 190.785156 Z M 833.734375 334.347656 C 852.207031 371.789062 859.511719 409.054688 855.960938 448.117188 C 852.574219 485.429688 837.9375 516.804688 813.46875 539.519531 C 810.640625 542.148438 807.765625 544.628906 804.648438 547.050781 C 779.722656 566.332031 747.75 576.910156 713.917969 577.164062 L 716.472656 508.339844 L 809.136719 422.316406 C 811.914062 419.734375 812.078125 415.347656 809.496094 412.566406 C 806.917969 409.789062 802.53125 409.625 799.75 412.207031 L 717.195312 488.84375 L 720.5 399.9375 L 777.21875 347.28125 C 780 344.699219 780.164062 340.3125 777.582031 337.535156 C 775 334.753906 770.613281 334.589844 767.832031 337.171875 L 721.222656 380.441406 L 723.941406 307.230469 C 724.085938 303.429688 721.128906 300.246094 717.324219 300.105469 C 713.523438 299.964844 710.339844 302.917969 710.199219 306.722656 L 707.453125 380.613281 L 663.574219 333.347656 C 660.992188 330.566406 656.605469 330.40625 653.824219 332.984375 C 651.042969 335.566406 650.878906 339.953125 653.460938 342.734375 L 706.730469 400.109375 L 703.40625 488.285156 L 626.71875 405.679688 C 624.136719 402.898438 619.75 402.738281 616.972656 405.320312 C 614.191406 407.898438 614.027344 412.285156 616.609375 415.066406 L 702.632812 507.730469 L 700.078125 576.554688 C 666.105469 573.925781 634.714844 560.996094 611.148438 539.765625 C 583.144531 514.46875 567.960938 479.054688 567.265625 437.347656 C 566.234375 371.757812 598.96875 307.863281 664.839844 246.710938 C 681.367188 231.363281 699.941406 216.191406 720.609375 201.242188 L 720.703125 201.34375 C 774.011719 245.6875 812.082031 290.445312 833.734375 334.347656 Z M 833.734375 334.347656 " fill-opacity="1" fill-rule="nonzero"/></g></g></g></svg>