<svg xmlns="http://www.w3.org/2000/svg" xmlns:xlink="http://www.w3.org/1999/xlink" width="1920" zoomAndPan="magnify" viewBox="0 0 1440 809.999993" height="1080" preserveAspectRatio="xMidYMid meet" version="1.0"><defs><clipPath id="4a374fa26a"><path d="M 452 13 L 986 13 L 986 810 L 452 810 Z M 452 13 " clip-rule="nonzero"/></clipPath><clipPath id="887849b6a9"><path d="M 310.113281 405 L 720.054688 -4.945312 L 1130 405 L 720.054688 814.945312 Z M 310.113281 405 " clip-rule="nonzero"/></clipPath><clipPath id="9151a08008"><path d="M 310.113281 405 L 720.054688 -4.945312 L 1130 405 L 720.054688 814.945312 Z M 310.113281 405 " clip-rule="nonzero"/></clipPath></defs><g clip-path="url(#4a374fa26a)"><g clip-path="url(#887849b6a9)"><g clip-path="url(#9151a08008)"><path fill="#5ab334" d="M 733.6875 21.589844 L 726.394531 15.933594 C 722.210938 12.738281 716.390625 12.65625 712.210938 15.851562 C 532.597656 154.3125 445.539062 299.410156 453.40625 447.136719 C 457.425781 523.785156 488.085938 588.054688 541.699219 632.976562 C 586.785156 670.6875 645.5625 692.410156 708.277344 694.625 L 708.277344 798.40625 C 708.277344 804.800781 713.441406 809.96875 719.835938 809.96875 C 723.113281 809.96875 725.902344 808.65625 728.03125 806.523438 C 730.164062 804.390625 731.394531 801.523438 731.476562 798.328125 L 731.476562 694.542969 C 793.777344 692.082031 852.0625 670.359375 896.90625 632.894531 C 902.480469 628.304688 907.808594 623.304688 912.808594 618.304688 C 956.585938 574.527344 981.589844 515.75 985.195312 447.054688 C 988.882812 376.796875 973.472656 310.722656 937.976562 245.0625 C 897.398438 169.886719 828.617188 94.714844 733.6875 21.589844 Z M 917.644531 256.210938 C 951.011719 317.9375 965.601562 380.078125 962.078125 445.90625 C 958.714844 508.78125 936.089844 562.394531 896.414062 602.070312 C 891.824219 606.664062 887.152344 611.007812 882.066406 615.269531 C 841.40625 649.210938 788.367188 668.964844 731.558594 671.507812 L 731.558594 555.753906 L 881.820312 405.492188 C 886.332031 400.980469 886.332031 393.605469 881.820312 389.09375 C 877.3125 384.585938 869.933594 384.585938 865.425781 389.09375 L 731.558594 522.964844 L 731.558594 373.4375 L 823.535156 281.457031 C 828.042969 276.949219 828.042969 269.570312 823.535156 265.0625 C 819.027344 260.554688 811.648438 260.554688 807.140625 265.0625 L 731.558594 340.644531 L 731.558594 217.515625 C 731.558594 211.121094 726.394531 205.957031 720 205.957031 C 713.605469 205.957031 708.441406 211.121094 708.441406 217.515625 L 708.441406 341.792969 L 631.789062 265.144531 C 627.28125 260.636719 619.902344 260.636719 615.394531 265.144531 C 610.886719 269.652344 610.886719 277.03125 615.394531 281.539062 L 708.441406 374.585938 L 708.359375 522.882812 L 574.40625 388.929688 C 569.898438 384.421875 562.519531 384.421875 558.011719 388.929688 C 553.503906 393.441406 553.503906 400.816406 558.011719 405.328125 L 708.277344 555.589844 L 708.277344 671.34375 C 651.054688 669.046875 597.523438 649.292969 556.617188 615.105469 C 508.003906 574.363281 480.296875 515.832031 476.527344 445.824219 C 470.707031 335.726562 521.695312 226.371094 628.511719 119.554688 C 655.316406 92.746094 685.566406 66.105469 719.34375 39.707031 L 719.507812 39.871094 C 811.8125 111.027344 878.542969 183.824219 917.644531 256.210938 Z M 917.644531 256.210938 " fill-opacity="1" fill-rule="nonzero"/></g></g></g></svg>