<svg xmlns="http://www.w3.org/2000/svg" xmlns:xlink="http://www.w3.org/1999/xlink" width="1920" zoomAndPan="magnify" viewBox="0 0 1440 809.999993" height="1080" preserveAspectRatio="xMidYMid meet" version="1.0"><defs><clipPath id="429af9964f"><path d="M 338.722656 23.722656 L 1101.472656 23.722656 L 1101.472656 786 L 338.722656 786 Z M 338.722656 23.722656 " clip-rule="nonzero"/></clipPath></defs><g clip-path="url(#429af9964f)"><path fill="#1ac8db" d="M 1089.378906 61.089844 L 1087.855469 49.042969 C 1086.9375 42.179688 1081.601562 36.6875 1074.738281 35.773438 C 778.867188 -2.507812 562.914062 51.480469 432.824219 196.214844 C 365.261719 271.25 333.996094 359.550781 342.078125 451.210938 C 348.941406 528.226562 383.410156 603.109375 439.6875 663.503906 L 343.148438 760.042969 C 337.199219 765.992188 337.199219 775.597656 343.148438 781.546875 C 346.199219 784.597656 350.011719 785.96875 353.976562 785.96875 C 357.941406 785.96875 361.753906 784.445312 364.804688 781.546875 L 461.34375 685.007812 C 521.585938 740.675781 596.007812 774.683594 672.570312 781.546875 C 682.023438 782.460938 691.632812 782.765625 700.9375 782.765625 C 782.375 782.765625 860.308594 751.351562 927.566406 690.804688 C 996.347656 628.882812 1043.472656 553.085938 1071.535156 458.988281 C 1103.714844 351.316406 1109.664062 217.414062 1089.378906 61.089844 Z M 1042.253906 450.449219 C 1015.871094 538.902344 971.640625 610.277344 907.128906 668.230469 C 845.515625 723.59375 774.597656 752.417969 700.785156 752.417969 C 692.242188 752.417969 683.855469 752.113281 675.160156 751.351562 C 605.769531 745.097656 538.054688 714.136719 482.847656 663.65625 L 590.519531 555.984375 L 870.070312 555.984375 C 878.457031 555.984375 885.320312 549.121094 885.320312 540.734375 C 885.320312 532.347656 878.457031 525.484375 870.070312 525.484375 L 621.019531 525.484375 L 760.109375 386.394531 L 931.226562 386.394531 C 939.613281 386.394531 946.476562 379.53125 946.476562 371.140625 C 946.476562 362.753906 939.613281 355.890625 931.226562 355.890625 L 790.613281 355.890625 L 905.148438 241.355469 C 911.09375 235.410156 911.09375 225.800781 905.148438 219.851562 C 899.199219 213.90625 889.589844 213.90625 883.644531 219.851562 L 768.039062 335.457031 L 768.039062 192.859375 C 768.039062 184.46875 761.175781 177.605469 752.789062 177.605469 C 744.402344 177.605469 737.539062 184.46875 737.539062 192.859375 L 737.539062 365.957031 L 599.515625 503.828125 L 599.515625 254.625 C 599.515625 246.238281 592.652344 239.375 584.265625 239.375 C 575.878906 239.375 569.015625 246.238281 569.015625 254.625 L 569.015625 534.175781 L 461.34375 641.847656 C 410.25 586.488281 378.835938 518.316406 372.582031 448.464844 C 365.261719 365.347656 393.933594 285.125 455.546875 216.496094 C 552.542969 108.671875 701.699219 54.378906 900.417969 54.378906 C 950.289062 54.378906 1003.210938 57.734375 1059.183594 64.597656 L 1059.183594 64.902344 C 1078.855469 216.953125 1073.214844 346.742188 1042.253906 450.449219 Z M 1042.253906 450.449219 " fill-opacity="1" fill-rule="nonzero"/></g></svg>